<?xml version="1.0" standalone="no"?>
<!DOCTYPE svg PUBLIC "-//W3C//DTD SVG 20010904//EN"
 "http://www.w3.org/TR/2001/REC-SVG-20010904/DTD/svg10.dtd">
<svg version="1.0" xmlns="http://www.w3.org/2000/svg"
 width="300.000000pt" height="141.000000pt" viewBox="0 0 300.000000 141.000000"
 preserveAspectRatio="xMidYMid meet">

<g transform="translate(0.000000,141.000000) scale(0.100000,-0.100000)"
fill="#000000" stroke="none">
<path d="M1355 1389 c-61 -21 -139 -84 -172 -139 -28 -46 -33 -64 -33 -117 0
-44 6 -76 20 -103 11 -22 20 -46 20 -54 0 -9 -33 -49 -72 -90 -40 -41 -80 -89
-89 -107 -55 -117 -61 -136 -66 -226 -10 -166 47 -294 178 -401 45 -36 144
-79 189 -80 8 0 47 -4 87 -7 110 -10 241 23 331 84 88 59 127 105 152 177 36
104 24 182 -44 285 -25 38 -46 77 -46 86 0 11 22 31 53 50 72 43 97 94 97 194
-1 41 -6 83 -13 94 -53 90 -97 112 -188 95 -63 -12 -89 -37 -89 -87 0 -47 37
-83 85 -83 52 0 75 15 75 50 0 41 17 38 35 -6 20 -48 19 -72 -5 -111 -27 -46
-100 -78 -289 -130 -54 -15 -75 -28 -132 -81 -60 -57 -68 -68 -74 -111 -5 -41
-2 -57 19 -99 31 -61 62 -87 131 -108 46 -15 59 -15 100 -4 53 15 85 54 85
106 0 49 -20 67 -85 74 -67 7 -95 -9 -95 -56 0 -38 -23 -25 -38 22 -16 46 -10
69 24 108 21 24 36 30 80 34 71 6 97 -2 143 -43 84 -76 106 -212 45 -276 -59
-62 -99 -78 -209 -80 -55 -1 -118 3 -140 9 -55 16 -140 99 -172 168 -52 114
-54 297 -4 382 37 64 50 70 108 49 70 -25 135 -22 183 8 49 31 60 51 60 110 0
35 -4 47 -17 51 -10 3 -26 10 -36 15 -9 5 -47 10 -84 10 -92 2 -110 10 -135
66 -19 42 -20 53 -9 92 21 79 89 123 177 114 27 -3 55 -10 62 -16 19 -15 14
-61 -10 -92 -42 -53 9 -109 66 -72 43 29 58 152 22 174 -7 5 -15 16 -19 25
-12 33 -51 48 -143 53 -49 2 -102 0 -119 -6z m138 -19 c10 0 15 -4 12 -10 -3
-5 -23 -10 -43 -10 -20 0 -63 -6 -94 -14 -57 -13 -71 -9 -45 12 16 14 106 31
132 26 11 -2 28 -4 38 -4z m-187 -76 c-1 -8 -9 -20 -17 -25 -8 -5 -10 -9 -5
-9 6 0 1 -6 -10 -14 -30 -23 -39 -1 -15 33 24 33 51 42 47 15z m314 -53 c0
-33 -15 -49 -23 -27 -7 18 3 56 14 56 5 0 9 -13 9 -29z m-377 -79 c-6 -62 8
-104 49 -149 16 -17 28 -20 57 -16 l36 5 -23 -19 c-13 -10 -20 -22 -16 -26 4
-4 14 -1 22 6 13 10 15 9 9 -6 -5 -14 1 -22 31 -35 37 -16 37 -16 9 -20 -17
-2 -46 7 -73 22 -55 31 -64 28 -128 -46 -27 -30 -46 -46 -46 -37 0 17 51 92
70 104 5 3 7 11 4 17 -5 7 -1 9 9 5 10 -3 17 -2 17 3 0 6 -4 10 -8 10 -14 0
-42 93 -42 136 0 36 16 104 25 104 2 0 1 -26 -2 -58z m587 -72 c12 -8 9 -10
-12 -10 -43 0 -82 -18 -71 -33 18 -22 22 -57 8 -57 -44 0 -63 84 -22 100 30
12 79 12 97 0z m80 -90 c0 -16 -2 -30 -5 -30 -9 0 -26 41 -20 50 12 20 25 9
25 -20z m-372 -37 c6 -38 -70 -46 -92 -10 -15 24 7 38 54 35 28 -2 36 -8 38
-25z m392 -29 c0 -8 -4 -14 -9 -14 -11 0 -22 26 -14 34 9 9 23 -3 23 -20z
m-10 -36 c0 -7 -5 -30 -10 -50 -15 -51 -58 -84 -122 -93 -67 -9 -71 -12 -50
-34 50 -54 59 -70 46 -75 -7 -3 -33 13 -57 35 -51 45 -70 47 -126 18 -23 -11
-46 -19 -53 -16 -9 3 -6 7 7 12 11 5 32 16 46 27 15 10 35 19 45 21 11 2 39
10 64 19 25 9 71 23 103 32 59 18 87 48 87 96 0 11 5 20 10 20 6 0 10 -6 10
-12z m-777 -145 c-8 -27 -22 -61 -30 -78 -27 -53 -33 -86 -23 -134 5 -25 12
-67 15 -93 4 -34 19 -65 55 -115 69 -94 67 -93 101 -93 17 0 32 -6 35 -15 3
-8 14 -17 25 -20 34 -11 21 -28 -16 -22 -26 4 -34 3 -29 -6 4 -7 -9 4 -29 23
-19 19 -45 44 -57 55 -45 40 -100 117 -109 153 -6 20 -13 71 -17 112 -6 70 -4
82 25 154 17 42 31 83 31 90 0 13 20 36 32 36 4 0 0 -21 -9 -47z m367 -80 c0
-5 -18 -23 -40 -41 -23 -19 -40 -27 -40 -20 0 18 11 31 40 51 26 18 40 22 40
10z m313 -95 c22 -30 36 -118 18 -118 -6 0 -11 8 -11 18 0 9 -11 41 -25 70
-14 30 -25 56 -25 59 0 12 25 -5 43 -29z m-395 -45 l-12 -28 -4 28 c-2 16 -1
36 3 45 6 16 7 16 16 0 6 -11 5 -26 -3 -45z m220 -35 c14 -14 16 -62 2 -88
-13 -24 -62 -40 -105 -33 -47 8 -55 23 -11 23 52 0 89 17 82 37 -4 9 -1 20 6
25 10 6 10 10 -2 18 -8 5 -21 8 -27 5 -14 -5 -18 7 -6 18 11 11 48 8 61 -5z
m-168 -70 c8 -14 7 -18 -3 -18 -26 0 -75 69 -59 84 6 6 43 -33 62 -66z m380
-18 c0 -11 -4 -20 -9 -20 -11 0 -22 26 -14 34 12 12 23 5 23 -14z m0 -55 c0
-8 -4 -15 -10 -15 -5 0 -10 7 -10 15 0 8 5 15 10 15 6 0 10 -7 10 -15z m-770
-15 c0 -5 -4 -10 -10 -10 -5 0 -10 5 -10 10 0 6 5 10 10 10 6 0 10 -4 10 -10z
m751 -37 c-5 -10 -28 -40 -52 -67 -47 -53 -106 -85 -156 -86 -18 0 -33 -5 -33
-11 0 -8 -4 -8 -12 -2 -12 10 -24 10 -53 2 -5 -1 -21 3 -35 8 l-25 11 25 5
c14 3 52 8 86 11 84 7 145 36 201 95 49 51 71 65 54 34z m-393 -124 c20 1 23
-3 20 -26 -2 -14 -8 -28 -14 -30 -7 -2 -10 6 -6 23 4 25 3 25 -18 14 -17 -9
-29 -9 -46 -1 -37 16 -30 35 9 26 17 -4 42 -7 55 -6z"/>
<path d="M287 1326 c-9 -28 -21 -71 -27 -96 -6 -25 -14 -61 -19 -80 -33 -124
-44 -171 -76 -305 -19 -82 -44 -190 -55 -240 -11 -49 -31 -137 -45 -195 -13
-58 -34 -149 -45 -204 -26 -125 -24 -129 74 -120 39 4 76 11 82 16 7 5 17 28
23 52 6 24 17 48 24 54 14 12 85 17 172 14 28 -1 67 1 88 4 44 7 87 -10 87
-35 0 -9 9 -35 19 -58 19 -40 21 -42 76 -48 44 -6 65 -4 91 9 37 17 39 22 24
75 -13 51 -113 461 -151 621 -66 280 -130 536 -140 563 -11 27 -12 27 -99 26
l-87 -1 -16 -52z m136 -70 c21 -16 23 -56 2 -56 -7 0 -18 -7 -23 -16 -8 -15
-10 -15 -15 0 -4 10 -1 16 8 16 8 0 15 7 15 16 0 28 -33 10 -42 -23 -11 -40
-28 -52 -28 -19 0 36 31 96 49 96 9 0 24 -7 34 -14z m37 -73 c0 -10 3 -39 6
-65 7 -58 -8 -64 -24 -9 -15 49 -15 64 0 79 16 16 17 15 18 -5z m-130 -143
c-6 -11 -15 -20 -21 -20 -11 0 -6 22 14 70 l11 25 4 -27 c2 -15 -2 -36 -8 -48z
m201 -192 c10 -47 8 -127 -3 -98 -15 38 -58 199 -64 237 -4 23 -3 50 1 60 7
17 36 -69 66 -199z m-232 75 c-5 -32 -29 -118 -54 -191 -25 -74 -45 -142 -45
-153 0 -10 -5 -19 -11 -19 -8 0 -9 14 -5 43 7 51 109 377 117 377 3 0 2 -26
-2 -57z m141 -183 c18 -80 41 -170 52 -201 11 -31 18 -69 16 -85 l-3 -29 -107
-3 -108 -2 -6 25 c-3 14 -4 35 -1 48 38 161 98 400 103 409 11 18 20 -8 54
-162z m120 -42 c0 -29 -2 -31 -15 -17 -9 9 -13 23 -9 32 10 28 24 19 24 -15z
m27 -110 c12 -29 25 -69 28 -88 4 -19 12 -44 18 -55 6 -11 10 -23 9 -27 -4
-15 20 -108 27 -108 5 0 6 -11 4 -25 -3 -13 2 -45 11 -71 9 -26 16 -59 15 -73
-1 -22 -5 -17 -24 24 -13 28 -26 67 -30 87 -6 35 -9 38 -38 37 -64 -2 -162 8
-167 17 -3 5 36 11 85 14 82 5 90 7 89 25 -1 11 -2 22 -3 25 -1 3 -4 16 -6 30
-3 26 -41 191 -51 223 -3 9 -1 17 3 17 5 0 19 -24 30 -52z m-392 -65 c-13 -29
-55 -174 -55 -188 0 -10 24 -13 98 -12 97 1 142 -6 142 -23 0 -6 -53 -7 -125
-4 -98 4 -125 2 -126 -8 -2 -22 -4 -32 -11 -53 -3 -11 -9 -37 -13 -58 -3 -21
-10 -35 -16 -32 -5 4 -7 11 -4 16 4 5 -2 9 -11 9 -15 0 -16 2 -2 18 8 9 21 46
27 82 23 127 73 270 93 270 6 0 7 -8 3 -17z m460 -333 c3 -5 1 -10 -4 -10 -6
0 -11 5 -11 10 0 6 2 10 4 10 3 0 8 -4 11 -10z"/>
<path d="M351 662 c-47 -207 -48 -212 -23 -212 24 0 26 4 58 143 19 84 24 125
19 165 -4 28 -9 52 -13 52 -4 0 -22 -66 -41 -148z"/>
<path d="M2426 1326 c-9 -28 -21 -76 -27 -106 -13 -63 -19 -88 -54 -220 -14
-52 -46 -185 -71 -295 -25 -110 -57 -247 -70 -305 -14 -58 -34 -147 -45 -199
-24 -119 -21 -125 70 -116 95 9 96 10 110 64 7 28 18 55 25 60 13 11 93 17
176 13 25 -1 65 1 90 3 57 7 71 -4 96 -75 l19 -55 58 -9 c47 -8 64 -6 93 8 40
18 39 7 11 136 -8 36 -21 92 -30 125 -9 33 -42 164 -72 290 -117 486 -167 689
-178 712 -10 22 -15 23 -97 22 l-87 -1 -17 -52z m137 -70 c21 -16 23 -56 2
-56 -7 0 -18 -7 -23 -16 -8 -15 -10 -15 -15 0 -4 10 -1 16 8 16 8 0 15 7 15
16 0 27 -35 11 -38 -18 -2 -15 -10 -32 -18 -38 -12 -10 -14 -8 -14 13 0 37 31
97 49 97 9 0 24 -7 34 -14z m37 -73 c0 -10 3 -39 6 -65 8 -64 -11 -62 -26 2
-10 40 -9 54 0 65 16 19 19 19 20 -2z m-116 -111 c-7 -30 -22 -52 -34 -52 -8
0 6 64 17 83 10 17 23 -6 17 -31z m151 -82 c2 -8 13 -51 24 -94 19 -72 29
-167 16 -154 -9 9 -64 202 -70 250 -8 56 4 87 17 43 5 -17 11 -37 13 -45z
m-192 -52 c-3 -24 -27 -112 -54 -195 -27 -84 -49 -160 -49 -168 0 -8 -5 -15
-11 -15 -7 0 -9 15 -4 43 8 54 108 377 117 377 3 0 4 -19 1 -42z m136 -193
c17 -77 40 -168 52 -202 11 -33 19 -74 17 -90 l-3 -28 -107 -3 -108 -2 -6 25
c-3 14 -4 35 -1 48 3 12 26 107 51 210 25 104 49 193 52 199 11 18 20 -10 53
-157z m124 -27 c2 -7 1 -21 -2 -31 -6 -16 -9 -17 -19 -4 -7 8 -10 22 -6 31 7
19 20 21 27 4z m25 -130 c11 -29 23 -65 26 -80 4 -15 11 -40 17 -55 7 -15 13
-37 14 -48 4 -45 18 -95 25 -95 5 0 6 -9 3 -19 -3 -11 2 -44 11 -74 9 -30 16
-66 16 -79 -1 -19 -4 -16 -20 17 -10 22 -25 61 -31 87 -12 44 -15 48 -43 47
-65 -2 -161 9 -161 17 0 9 21 12 115 13 55 1 56 2 54 29 -1 15 -2 27 -3 27 -1
0 -4 14 -6 30 -3 17 -15 76 -29 133 -26 111 -20 133 12 50z m-393 -65 c-12
-29 -55 -176 -55 -189 0 -8 28 -12 98 -11 97 1 142 -6 142 -23 0 -6 -52 -7
-123 -4 l-123 5 -18 -81 c-10 -44 -22 -77 -27 -74 -5 3 -7 10 -4 15 4 5 -2 9
-11 9 -16 0 -16 2 -1 18 8 9 21 46 27 82 21 118 73 270 92 270 6 0 7 -8 3 -17z
m460 -333 c3 -5 1 -10 -4 -10 -6 0 -11 5 -11 10 0 6 2 10 4 10 3 0 8 -4 11
-10z"/>
<path d="M2491 663 c-48 -217 -48 -215 -20 -211 21 3 26 15 52 126 23 96 28
136 22 178 -3 30 -10 54 -13 54 -4 0 -22 -66 -41 -147z"/>
<path d="M534 1305 c3 -8 35 -145 72 -303 36 -158 69 -291 74 -297 4 -5 10
-28 13 -50 8 -49 29 -141 52 -220 17 -59 61 -250 71 -310 5 -28 2 -32 -40 -53
-26 -12 -61 -22 -79 -22 -41 -1 -18 -15 39 -25 28 -4 53 -1 79 9 34 15 37 18
32 48 -14 83 -28 145 -52 240 -48 187 -65 259 -65 279 0 10 -4 27 -10 37 -5 9
-19 60 -30 112 -18 80 -55 235 -111 470 -16 65 -30 100 -41 100 -6 0 -8 -7 -4
-15z"/>
<path d="M2674 1304 c4 -9 36 -143 71 -298 36 -154 69 -290 74 -301 5 -11 18
-60 29 -110 11 -49 33 -144 50 -210 39 -154 62 -256 62 -276 0 -19 -81 -59
-123 -59 -41 -1 -18 -15 39 -25 28 -4 53 -1 78 9 39 16 45 39 27 100 -16 56
-94 376 -111 456 -5 25 -23 101 -39 170 -17 69 -52 211 -77 315 -49 207 -61
245 -76 245 -6 0 -7 -7 -4 -16z"/>
<path d="M1421 1280 c-34 -8 -51 -24 -51 -47 0 -7 -5 -13 -11 -13 -6 0 -9 -6
-6 -14 3 -8 1 -16 -6 -19 -8 -2 -8 -14 1 -45 16 -51 32 -63 32 -23 0 71 42
125 111 142 27 7 49 16 49 21 0 10 -73 9 -119 -2z"/>
<path d="M1690 1217 c0 -37 -5 -51 -31 -76 -17 -17 -37 -31 -45 -31 -18 0 -18
-19 1 -26 9 -4 28 8 48 30 19 20 39 36 46 36 17 0 14 85 -4 100 -13 11 -15 6
-15 -33z"/>
<path d="M1992 943 c2 -39 -1 -75 -5 -79 -4 -4 -7 -20 -7 -36 0 -59 -46 -116
-102 -124 -41 -7 -44 -11 -25 -36 12 -15 18 -13 69 18 46 28 62 46 84 90 23
47 26 64 22 117 -3 35 -13 76 -22 93 -16 29 -16 29 -14 -43z"/>
<path d="M1630 944 c0 -32 -49 -103 -71 -104 -9 0 -22 -7 -29 -15 -8 -10 -31
-15 -69 -15 l-56 -1 34 -14 c43 -19 88 -19 125 0 15 8 34 15 41 15 7 0 25 14
39 31 25 30 34 77 20 113 -10 26 -34 19 -34 -10z"/>
<path d="M1834 946 c-3 -9 -11 -16 -18 -15 -6 1 -22 1 -36 0 -24 -2 -24 -2 -6
-16 32 -24 65 -19 72 10 7 30 -2 46 -12 21z"/>
<path d="M1297 833 c-51 -85 -65 -170 -49 -284 9 -57 45 -159 56 -159 6 0 -6
43 -14 55 -4 6 -10 39 -14 75 -11 109 26 250 75 284 l22 15 -27 11 c-32 12
-43 13 -49 3z"/>
<path d="M1535 577 c-22 -22 -31 -33 -19 -24 11 9 28 17 36 17 9 0 33 7 53 16
21 9 49 14 62 11 13 -2 23 -1 23 3 0 13 -29 20 -73 19 -35 -1 -49 -8 -82 -42z"/>
<path d="M1946 461 c4 -36 2 -72 -6 -97 -7 -21 -14 -45 -15 -54 -1 -8 -4 -22
-7 -30 -4 -8 -8 -21 -10 -27 -5 -20 -102 -132 -114 -132 -7 -1 -36 -12 -65
-25 -30 -13 -96 -34 -148 -47 -82 -19 -105 -21 -173 -13 -75 9 -103 4 -55 -10
43 -13 232 -18 275 -7 23 6 61 16 84 21 52 13 163 88 204 138 46 55 77 157 68
223 -7 52 -29 119 -39 119 -3 0 -2 -26 1 -59z"/>
<path d="M1730 427 c0 -50 -4 -61 -26 -82 -22 -21 -38 -25 -88 -26 -52 0 -57
-2 -36 -11 14 -5 50 -7 80 -4 43 4 60 11 78 31 26 31 30 100 7 131 -13 17 -14
14 -15 -39z"/>
<path d="M268 192 c-23 -3 -29 -12 -46 -60 l-18 -57 -61 -10 c-113 -18 -88
-42 31 -30 l75 7 12 50 c8 29 22 56 34 63 24 16 91 22 123 11 32 -11 124 3
119 18 -3 10 -196 16 -269 8z"/>
<path d="M2413 192 c-29 -3 -33 -8 -50 -60 l-18 -57 -62 -10 c-113 -18 -89
-42 31 -30 l75 7 12 50 c8 29 22 56 34 63 24 16 91 22 123 11 32 -11 124 3
119 18 -3 10 -180 16 -264 8z"/>
</g>
</svg>
